<?xml version="1.0" encoding="UTF-8" standalone="no"?>
<!-- Created with Inkscape (http://www.inkscape.org/) -->

<svg
   xmlns:dc="http://purl.org/dc/elements/1.1/"
   xmlns:cc="http://creativecommons.org/ns#"
   xmlns:rdf="http://www.w3.org/1999/02/22-rdf-syntax-ns#"
   xmlns:svg="http://www.w3.org/2000/svg"
   xmlns="http://www.w3.org/2000/svg"
   xmlns:sodipodi="http://sodipodi.sourceforge.net/DTD/sodipodi-0.dtd"
   xmlns:inkscape="http://www.inkscape.org/namespaces/inkscape"
   width="80"
   height="80"
   viewBox="0 0 80.000001 80.000001"
   id="svg7742"
   version="1.1"
   inkscape:version="0.91 r13725"
   sodipodi:docname="client.svg">
  <defs
     id="defs7744" />
  <sodipodi:namedview
     id="base"
     pagecolor="#ffffff"
     bordercolor="#666666"
     borderopacity="1.0"
     inkscape:pageopacity="0.0"
     inkscape:pageshadow="2"
     inkscape:zoom="5.6"
     inkscape:cx="58.289412"
     inkscape:cy="42.013928"
     inkscape:document-units="px"
     inkscape:current-layer="layer1"
     showgrid="false"
     units="px"
     inkscape:window-width="1920"
     inkscape:window-height="1035"
     inkscape:window-x="1279"
     inkscape:window-y="0"
     inkscape:window-maximized="0" />
  <metadata
     id="metadata7747">
    <rdf:RDF>
      <cc:Work
         rdf:about="">
        <dc:format>image/svg+xml</dc:format>
        <dc:type
           rdf:resource="http://purl.org/dc/dcmitype/StillImage" />
        <dc:title></dc:title>
      </cc:Work>
    </rdf:RDF>
  </metadata>
  <g
     inkscape:label="Layer 1"
     inkscape:groupmode="layer"
     id="layer1"
     transform="translate(0,-972.36216)">
    <path
       inkscape:connector-curvature="0"
       style="display:inline;opacity:1;fill:#000000;fill-opacity:1;stroke:#000000;stroke-width:0;stroke-miterlimit:4;stroke-dasharray:none;stroke-dashoffset:0;stroke-opacity:1"
       d="M 40.000005,972.36214 A 39.999996,39.999996 0 0 0 5.0000522e-6,1012.3622 a 39.999996,39.999996 0 0 0 39.9999999999478,40 39.999996,39.999996 0 0 0 40,-40 39.999996,39.999996 0 0 0 -40,-40.00006 z m 0,10 a 29.999994,29.999994 0 0 1 30,30.00006 29.999994,29.999994 0 0 1 -30,30 29.999994,29.999994 0 0 1 -30,-30 29.999994,29.999994 0 0 1 30,-30.00006 z m 0,10 a 19.999996,19.999996 0 0 0 -20,20.00006 19.999996,19.999996 0 0 0 20,20 19.999996,19.999996 0 0 0 20,-20 19.999996,19.999996 0 0 0 -20,-20.00006 z"
       id="path6170" />
  </g>
</svg>
