<?xml version="1.0" encoding="UTF-8" standalone="no"?>
<!-- Created with Inkscape (http://www.inkscape.org/) -->

<svg
   xmlns:dc="http://purl.org/dc/elements/1.1/"
   xmlns:cc="http://creativecommons.org/ns#"
   xmlns:rdf="http://www.w3.org/1999/02/22-rdf-syntax-ns#"
   xmlns:svg="http://www.w3.org/2000/svg"
   xmlns="http://www.w3.org/2000/svg"
   xmlns:sodipodi="http://sodipodi.sourceforge.net/DTD/sodipodi-0.dtd"
   xmlns:inkscape="http://www.inkscape.org/namespaces/inkscape"
   width="600"
   height="200"
   viewBox="0 0 600.00001 200"
   id="svg5510"
   version="1.1"
   inkscape:version="0.91 r13725"
   sodipodi:docname="overview.svg">
  <defs
     id="defs5512">
    <marker
       inkscape:isstock="true"
       style="overflow:visible"
       id="marker4863"
       refX="0"
       refY="0"
       orient="auto"
       inkscape:stockid="Arrow1Lend">
      <path
         inkscape:connector-curvature="0"
         transform="matrix(-0.8,0,0,-0.8,-10,0)"
         style="fill:#000000;fill-opacity:1;fill-rule:evenodd;stroke:#000000;stroke-width:1pt;stroke-opacity:1"
         d="M 0,0 5,-5 -12.5,0 5,5 0,0 Z"
         id="path4865" />
    </marker>
    <marker
       inkscape:isstock="true"
       style="overflow:visible"
       id="marker4787"
       refX="0"
       refY="0"
       orient="auto"
       inkscape:stockid="Arrow1Lend">
      <path
         inkscape:connector-curvature="0"
         transform="matrix(-0.8,0,0,-0.8,-10,0)"
         style="fill:#000000;fill-opacity:1;fill-rule:evenodd;stroke:#000000;stroke-width:1pt;stroke-opacity:1"
         d="M 0,0 5,-5 -12.5,0 5,5 0,0 Z"
         id="path4789" />
    </marker>
    <marker
       inkscape:isstock="true"
       style="overflow:visible"
       id="marker4723"
       refX="0"
       refY="0"
       orient="auto"
       inkscape:stockid="Arrow1Lend">
      <path
         inkscape:connector-curvature="0"
         transform="matrix(-0.8,0,0,-0.8,-10,0)"
         style="fill:#000000;fill-opacity:1;fill-rule:evenodd;stroke:#000000;stroke-width:1pt;stroke-opacity:1"
         d="M 0,0 5,-5 -12.5,0 5,5 0,0 Z"
         id="path4725" />
    </marker>
    <marker
       inkscape:isstock="true"
       style="overflow:visible"
       id="marker4647"
       refX="0"
       refY="0"
       orient="auto"
       inkscape:stockid="Arrow1Lstart">
      <path
         transform="matrix(0.8,0,0,0.8,10,0)"
         style="fill:#000000;fill-opacity:1;fill-rule:evenodd;stroke:#000000;stroke-width:1pt;stroke-opacity:1"
         d="M 0,0 5,-5 -12.5,0 5,5 0,0 Z"
         id="path4649"
         inkscape:connector-curvature="0" />
    </marker>
    <marker
       inkscape:isstock="true"
       style="overflow:visible"
       id="marker4595"
       refX="0"
       refY="0"
       orient="auto"
       inkscape:stockid="Arrow1Lstart">
      <path
         transform="matrix(0.8,0,0,0.8,10,0)"
         style="fill:#000000;fill-opacity:1;fill-rule:evenodd;stroke:#000000;stroke-width:1pt;stroke-opacity:1"
         d="M 0,0 5,-5 -12.5,0 5,5 0,0 Z"
         id="path4597"
         inkscape:connector-curvature="0" />
    </marker>
    <marker
       inkscape:isstock="true"
       style="overflow:visible"
       id="marker4549"
       refX="0"
       refY="0"
       orient="auto"
       inkscape:stockid="Arrow1Lstart">
      <path
         transform="matrix(0.8,0,0,0.8,10,0)"
         style="fill:#000000;fill-opacity:1;fill-rule:evenodd;stroke:#000000;stroke-width:1pt;stroke-opacity:1"
         d="M 0,0 5,-5 -12.5,0 5,5 0,0 Z"
         id="path4551"
         inkscape:connector-curvature="0" />
    </marker>
    <marker
       inkscape:stockid="Arrow1Lstart"
       orient="auto"
       refY="0"
       refX="0"
       id="Arrow1Lstart"
       style="overflow:visible"
       inkscape:isstock="true"
       inkscape:collect="always">
      <path
         id="path4249"
         d="M 0,0 5,-5 -12.5,0 5,5 0,0 Z"
         style="fill:#000000;fill-opacity:1;fill-rule:evenodd;stroke:#000000;stroke-width:1pt;stroke-opacity:1"
         transform="matrix(0.8,0,0,0.8,10,0)"
         inkscape:connector-curvature="0" />
    </marker>
    <marker
       inkscape:stockid="Arrow1Lend"
       orient="auto"
       refY="0"
       refX="0"
       id="marker4386"
       style="overflow:visible"
       inkscape:isstock="true"
       inkscape:collect="always">
      <path
         id="path4388"
         d="M 0,0 5,-5 -12.5,0 5,5 0,0 Z"
         style="fill:#000000;fill-opacity:1;fill-rule:evenodd;stroke:#000000;stroke-width:1pt;stroke-opacity:1"
         transform="matrix(-0.8,0,0,-0.8,-10,0)"
         inkscape:connector-curvature="0" />
    </marker>
    <marker
       inkscape:stockid="Arrow1Lend"
       orient="auto"
       refY="0"
       refX="0"
       id="marker4382"
       style="overflow:visible"
       inkscape:isstock="true">
      <path
         id="path4384"
         d="M 0,0 5,-5 -12.5,0 5,5 0,0 Z"
         style="fill:#000000;fill-opacity:1;fill-rule:evenodd;stroke:#000000;stroke-width:1pt;stroke-opacity:1"
         transform="matrix(-0.8,0,0,-0.8,-10,0)"
         inkscape:connector-curvature="0" />
    </marker>
    <marker
       inkscape:isstock="true"
       style="overflow:visible"
       id="marker4366"
       refX="0"
       refY="0"
       orient="auto"
       inkscape:stockid="Arrow1Lend">
      <path
         inkscape:connector-curvature="0"
         transform="matrix(-0.8,0,0,-0.8,-10,0)"
         style="fill:#000000;fill-opacity:1;fill-rule:evenodd;stroke:#000000;stroke-width:1pt;stroke-opacity:1"
         d="M 0,0 5,-5 -12.5,0 5,5 0,0 Z"
         id="path4368" />
    </marker>
    <marker
       inkscape:isstock="true"
       style="overflow:visible"
       id="marker4362"
       refX="0"
       refY="0"
       orient="auto"
       inkscape:stockid="Arrow1Lend">
      <path
         inkscape:connector-curvature="0"
         transform="matrix(-0.8,0,0,-0.8,-10,0)"
         style="fill:#000000;fill-opacity:1;fill-rule:evenodd;stroke:#000000;stroke-width:1pt;stroke-opacity:1"
         d="M 0,0 5,-5 -12.5,0 5,5 0,0 Z"
         id="path4364" />
    </marker>
  </defs>
  <sodipodi:namedview
     id="base"
     pagecolor="#ffffff"
     bordercolor="#666666"
     borderopacity="1.0"
     inkscape:pageopacity="0.0"
     inkscape:pageshadow="2"
     inkscape:zoom="0.98994948"
     inkscape:cx="245.16278"
     inkscape:cy="166.95917"
     inkscape:document-units="px"
     inkscape:current-layer="layer1"
     showgrid="true"
     units="px"
     inkscape:window-width="1276"
     inkscape:window-height="755"
     inkscape:window-x="4"
     inkscape:window-y="1"
     inkscape:window-maximized="1">
    <inkscape:grid
       type="xygrid"
       id="grid5503"
       spacingx="10"
       spacingy="10"
       originy="0" />
  </sodipodi:namedview>
  <metadata
     id="metadata5515">
    <rdf:RDF>
      <cc:Work
         rdf:about="">
        <dc:format>image/svg+xml</dc:format>
        <dc:type
           rdf:resource="http://purl.org/dc/dcmitype/StillImage" />
        <dc:title></dc:title>
      </cc:Work>
    </rdf:RDF>
  </metadata>
  <g
     inkscape:label="Layer 1"
     inkscape:groupmode="layer"
     id="layer1"
     transform="translate(0,-852.36217)"
     style="display:inline">
    <path
       inkscape:connector-curvature="0"
       id="path4230"
       d="M 70.239538,940.1029 A 12.293389,12.293387 0 0 0 57.946142,952.3963 12.293389,12.293387 0 0 0 70.239538,964.68969 12.293389,12.293387 0 0 0 82.532927,952.3963 12.293389,12.293387 0 0 0 70.239538,940.1029 Z m 0,3.07336 a 9.2200408,9.2200397 0 0 1 9.220047,9.22004 9.2200408,9.2200397 0 0 1 -9.220047,9.22004 9.2200408,9.2200397 0 0 1 -9.220048,-9.22004 9.2200408,9.2200397 0 0 1 9.220048,-9.22004 z m 0,3.07334 a 6.1466938,6.1466929 0 0 0 -6.1467,6.1467 6.1466938,6.1466929 0 0 0 6.1467,6.14669 6.1466938,6.1466929 0 0 0 6.146695,-6.14669 6.1466938,6.1466929 0 0 0 -6.146695,-6.1467 z"
       style="display:inline;opacity:1;fill:#000000;fill-opacity:1;stroke:#000000;stroke-width:0;stroke-miterlimit:4;stroke-dasharray:none;stroke-dashoffset:0;stroke-opacity:1" />
    <path
       style="display:inline;opacity:1;fill:#000000;fill-opacity:1;stroke:#000000;stroke-width:0;stroke-miterlimit:4;stroke-dasharray:none;stroke-dashoffset:0;stroke-opacity:1"
       d="m 463.62806,874.53815 a 12.293389,12.293387 0 0 0 -12.29339,12.29338 12.293389,12.293387 0 0 0 12.29339,12.29339 12.293389,12.293387 0 0 0 12.29339,-12.29339 12.293389,12.293387 0 0 0 -12.29339,-12.29338 z m 0,3.07335 a 9.2200408,9.2200397 0 0 1 9.22004,9.22003 9.2200408,9.2200397 0 0 1 -9.22004,9.22005 9.2200408,9.2200397 0 0 1 -9.22005,-9.22005 9.2200408,9.2200397 0 0 1 9.22005,-9.22003 z m 0,3.07335 a 6.1466938,6.1466929 0 0 0 -6.14669,6.14668 6.1466938,6.1466929 0 0 0 6.14669,6.1467 6.1466938,6.1466929 0 0 0 6.1467,-6.1467 6.1466938,6.1466929 0 0 0 -6.1467,-6.14668 z"
       id="path4236"
       inkscape:connector-curvature="0" />
    <path
       inkscape:connector-curvature="0"
       id="path4242"
       d="m 463.62806,1005.6677 a 12.293389,12.293387 0 0 0 -12.29339,12.2933 12.293389,12.293387 0 0 0 12.29339,12.2934 12.293389,12.293387 0 0 0 12.29339,-12.2934 12.293389,12.293387 0 0 0 -12.29339,-12.2933 z m 0,3.0733 a 9.2200408,9.2200397 0 0 1 9.22004,9.22 9.2200408,9.2200397 0 0 1 -9.22004,9.2201 9.2200408,9.2200397 0 0 1 -9.22005,-9.2201 9.2200408,9.2200397 0 0 1 9.22005,-9.22 z m 0,3.0734 a 6.1466938,6.1466929 0 0 0 -6.14669,6.1466 6.1466938,6.1466929 0 0 0 6.14669,6.1467 6.1466938,6.1466929 0 0 0 6.1467,-6.1467 6.1466938,6.1466929 0 0 0 -6.1467,-6.1466 z"
       style="display:inline;opacity:1;fill:#000000;fill-opacity:1;stroke:#000000;stroke-width:0;stroke-miterlimit:4;stroke-dasharray:none;stroke-dashoffset:0;stroke-opacity:1" />
    <path
       style="display:inline;opacity:1;fill:#000000;fill-opacity:1;stroke:#000000;stroke-width:0;stroke-miterlimit:4;stroke-dasharray:none;stroke-dashoffset:0;stroke-opacity:1"
       d="m 529.19281,940.1029 a 12.293389,12.293387 0 0 0 -12.29339,12.2934 12.293389,12.293387 0 0 0 12.29339,12.29339 12.293389,12.293387 0 0 0 12.2934,-12.29339 12.293389,12.293387 0 0 0 -12.2934,-12.2934 z m 0,3.07336 a 9.2200408,9.2200397 0 0 1 9.22004,9.22004 9.2200408,9.2200397 0 0 1 -9.22004,9.22004 9.2200408,9.2200397 0 0 1 -9.22004,-9.22004 9.2200408,9.2200397 0 0 1 9.22004,-9.22004 z m 0,3.07334 a 6.1466938,6.1466929 0 0 0 -6.14669,6.1467 6.1466938,6.1466929 0 0 0 6.14669,6.14669 6.1466938,6.1466929 0 0 0 6.1467,-6.14669 6.1466938,6.1466929 0 0 0 -6.1467,-6.1467 z"
       id="path4248"
       inkscape:connector-curvature="0" />
    <path
       inkscape:connector-curvature="0"
       id="path4254"
       d="m 94.99807,951.16424 170.88428,-0.6036"
       style="display:inline;fill:none;fill-rule:evenodd;stroke:#000000;stroke-width:0.48380551px;stroke-linecap:butt;stroke-linejoin:miter;stroke-opacity:1;marker-start:url(#marker4647);marker-end:url(#marker4863)" />
    <path
       style="display:inline;fill:none;fill-rule:evenodd;stroke:#000000;stroke-width:0.42030624px;stroke-linecap:butt;stroke-linejoin:miter;stroke-opacity:1;marker-start:url(#marker4549);marker-end:url(#marker4723)"
       d="M 442.34414,891.22652 324.30381,936.34273"
       id="path4332"
       inkscape:connector-curvature="0" />
    <path
       inkscape:connector-curvature="0"
       id="path4352"
       d="M 442.78899,1009.7904 324.23069,966.05336"
       style="display:inline;fill:none;fill-rule:evenodd;stroke:#000000;stroke-width:0.42030624px;stroke-linecap:butt;stroke-linejoin:miter;stroke-opacity:1;marker-start:url(#Arrow1Lstart);marker-end:url(#marker4386)" />
    <path
       style="display:inline;fill:none;fill-rule:evenodd;stroke:#000000;stroke-width:0.49506959px;stroke-linecap:butt;stroke-linejoin:miter;stroke-opacity:1;marker-start:url(#marker4595);marker-end:url(#marker4787)"
       d="m 330.26548,951.75082 179.53369,0.60159"
       id="path4370"
       inkscape:connector-curvature="0" />
    <text
       transform="scale(1.027791,0.97296045)"
       sodipodi:linespacing="125%"
       id="text4216"
       y="940.79865"
       x="271.677"
       style="font-style:normal;font-variant:normal;font-weight:normal;font-stretch:normal;font-size:12.59517956px;line-height:125%;font-family:'.Al Bayan PUA';-inkscape-font-specification:'.Al Bayan PUA';letter-spacing:0px;word-spacing:0px;display:inline;fill:#000000;fill-opacity:1;stroke:none;stroke-width:1px;stroke-linecap:butt;stroke-linejoin:miter;stroke-opacity:1"
       xml:space="preserve"><tspan
         y="940.79865"
         x="271.677"
         id="tspan4218"
         sodipodi:role="line">Broker</tspan></text>
    <text
       sodipodi:linespacing="125%"
       id="text4232"
       y="952.57355"
       x="12.683849"
       style="font-style:normal;font-variant:normal;font-weight:normal;font-stretch:normal;font-size:14.32290077px;line-height:125%;font-family:'.Al Bayan PUA';-inkscape-font-specification:'.Al Bayan PUA';letter-spacing:0px;word-spacing:0px;display:inline;fill:#000000;fill-opacity:1;stroke:none;stroke-width:1px;stroke-linecap:butt;stroke-linejoin:miter;stroke-opacity:1"
       xml:space="preserve"><tspan
         y="952.57355"
         x="12.683849"
         id="tspan4234"
         sodipodi:role="line">Client</tspan></text>
    <text
       xml:space="preserve"
       style="font-style:normal;font-variant:normal;font-weight:normal;font-stretch:normal;font-size:14.32290077px;line-height:125%;font-family:'.Al Bayan PUA';-inkscape-font-specification:'.Al Bayan PUA';letter-spacing:0px;word-spacing:0px;display:inline;fill:#000000;fill-opacity:1;stroke:none;stroke-width:1px;stroke-linecap:butt;stroke-linejoin:miter;stroke-opacity:1"
       x="479.08139"
       y="887.02081"
       id="text4238"
       sodipodi:linespacing="125%"><tspan
         sodipodi:role="line"
         id="tspan4240"
         x="479.08139"
         y="887.02081">Client</tspan></text>
    <text
       sodipodi:linespacing="125%"
       id="text4244"
       y="1018.0479"
       x="479.18387"
       style="font-style:normal;font-variant:normal;font-weight:normal;font-stretch:normal;font-size:14.32290077px;line-height:125%;font-family:'.Al Bayan PUA';-inkscape-font-specification:'.Al Bayan PUA';letter-spacing:0px;word-spacing:0px;display:inline;fill:#000000;fill-opacity:1;stroke:none;stroke-width:1px;stroke-linecap:butt;stroke-linejoin:miter;stroke-opacity:1"
       xml:space="preserve"><tspan
         y="1018.0479"
         x="479.18387"
         id="tspan4246"
         sodipodi:role="line">Client</tspan></text>
    <text
       xml:space="preserve"
       style="font-style:normal;font-variant:normal;font-weight:normal;font-stretch:normal;font-size:14.32290077px;line-height:125%;font-family:'.Al Bayan PUA';-inkscape-font-specification:'.Al Bayan PUA';letter-spacing:0px;word-spacing:0px;display:inline;fill:#000000;fill-opacity:1;stroke:none;stroke-width:1px;stroke-linecap:butt;stroke-linejoin:miter;stroke-opacity:1"
       x="544.74866"
       y="952.12457"
       id="text4250"
       sodipodi:linespacing="125%"><tspan
         sodipodi:role="line"
         id="tspan4252"
         x="544.74866"
         y="952.12457">Client</tspan></text>
    <path
       inkscape:connector-curvature="0"
       id="path4224"
       d="m 291.38731,932.12021 -11.89721,11.82759 -0.0496,16.77695 11.82757,11.89803 16.77696,0.0496 11.89722,-11.8284 0.0496,-16.77695 -11.82758,-11.89802 -16.77697,-0.0488 z m 1.59591,3.72324 13.56194,0.04 9.56181,9.73547 -0.0393,13.72842 -9.61862,9.67784 -13.56275,-0.04 -9.56179,-9.73547 0.04,-13.72762 9.61862,-9.67864 z m 2.52431,6.34597 -6.01064,5.97623 -0.0255,8.47651 5.97621,6.01224 8.47653,0.0248 6.01144,-5.97623 0.0248,-8.47732 -5.97543,-6.01144 -8.47731,-0.0248 z"
       style="display:inline;opacity:1;fill:#000000;fill-opacity:1;stroke:#000000;stroke-width:0;stroke-miterlimit:4;stroke-dasharray:none;stroke-dashoffset:0;stroke-opacity:1" />
  </g>
  <g
     inkscape:groupmode="layer"
     id="layer2"
     inkscape:label="Topics"
     style="display:none"
     transform="translate(0,-300.36221)">
    <text
       transform="translate(0,-551.99996)"
       sodipodi:linespacing="125%"
       id="text4534"
       y="637.1098"
       x="1299.3898"
       style="font-style:normal;font-variant:normal;font-weight:normal;font-stretch:normal;font-size:34.9526825px;line-height:125%;font-family:'.Al Bayan PUA';-inkscape-font-specification:'.Al Bayan PUA';letter-spacing:0px;word-spacing:0px;display:inline;fill:#008000;fill-opacity:1;stroke:none;stroke-width:1px;stroke-linecap:butt;stroke-linejoin:miter;stroke-opacity:1"
       xml:space="preserve"><tspan
         y="637.1098"
         x="1299.3898"
         id="tspan4536"
         sodipodi:role="line">a</tspan></text>
    <text
       transform="translate(0,-551.99996)"
       xml:space="preserve"
       style="font-style:normal;font-variant:normal;font-weight:normal;font-stretch:normal;font-size:34.9526825px;line-height:125%;font-family:'.Al Bayan PUA';-inkscape-font-specification:'.Al Bayan PUA';letter-spacing:0px;word-spacing:0px;display:inline;fill:#008000;fill-opacity:1;stroke:none;stroke-width:1px;stroke-linecap:butt;stroke-linejoin:miter;stroke-opacity:1"
       x="1298.7606"
       y="955.99329"
       id="text4538"
       sodipodi:linespacing="125%"><tspan
         sodipodi:role="line"
         id="tspan4540"
         x="1298.7606"
         y="955.99329">a</tspan></text>
    <text
       transform="translate(0,-551.99996)"
       sodipodi:linespacing="125%"
       id="text4542"
       y="797.10394"
       x="1458.9645"
       style="font-style:normal;font-variant:normal;font-weight:normal;font-stretch:normal;font-size:34.9526825px;line-height:125%;font-family:'.Al Bayan PUA';-inkscape-font-specification:'.Al Bayan PUA';letter-spacing:0px;word-spacing:0px;display:inline;fill:#008000;fill-opacity:1;stroke:none;stroke-width:1px;stroke-linecap:butt;stroke-linejoin:miter;stroke-opacity:1"
       xml:space="preserve"><tspan
         y="797.10394"
         x="1458.9645"
         id="tspan4544"
         sodipodi:role="line">a</tspan></text>
    <text
       transform="translate(0,-551.99996)"
       xml:space="preserve"
       style="font-style:normal;font-variant:normal;font-weight:normal;font-stretch:normal;font-size:34.9526825px;line-height:125%;font-family:'.Al Bayan PUA';-inkscape-font-specification:'.Al Bayan PUA';letter-spacing:0px;word-spacing:0px;display:inline;fill:#008000;fill-opacity:1;stroke:none;stroke-width:1px;stroke-linecap:butt;stroke-linejoin:miter;stroke-opacity:1"
       x="23.549103"
       y="796.41852"
       id="text4546"
       sodipodi:linespacing="125%"><tspan
         sodipodi:role="line"
         id="tspan4548"
         x="23.549103"
         y="796.41852">a</tspan></text>
  </g>
</svg>
